<svg width="1280" height="720" viewBox="0 0 1280 720" fill="none" xmlns="http://www.w3.org/2000/svg">
<rect width="1280" height="720" fill="#A4D0FF"/>
<path d="M683.465 393.897V326.92C683.465 321.658 679.159 317.352 673.897 317.352H606.92C601.658 317.352 597.352 321.658 597.352 326.92V393.897C597.352 399.159 601.658 403.465 606.92 403.465H673.897C679.159 403.465 683.465 399.159 683.465 393.897ZM625.578 369.881L635.624 381.984L650.455 362.896C651.412 361.652 653.325 361.652 654.282 362.944L671.074 385.333C672.27 386.912 671.122 389.16 669.16 389.16H611.8C609.791 389.16 608.69 386.864 609.934 385.285L621.846 369.976C622.755 368.733 624.573 368.685 625.578 369.881Z" fill="white"/>
</svg>
