<svg width="502" height="289" viewBox="0 0 502 289" fill="none" xmlns="http://www.w3.org/2000/svg">
<path d="M23.0957 91.5938H42.2168L83.1445 219.104L123.965 91.5938H143.086L90.5566 248H75.5176L23.0957 91.5938ZM16.8652 91.5938H33.623L36.5234 186.984V248H16.8652V91.5938ZM132.451 91.5938H149.209V248H129.551V186.984L132.451 91.5938ZM420.557 248H393.916L394.131 231.135H420.557C429.938 231.135 437.565 229.344 443.438 225.764C449.31 222.111 453.643 216.74 456.436 209.65C459.229 202.489 460.625 193.645 460.625 183.117V156.369C460.625 148.062 459.837 140.9 458.262 134.885C456.686 128.869 454.323 123.928 451.172 120.061C448.021 116.193 444.046 113.329 439.248 111.467C434.45 109.533 428.828 108.566 422.383 108.566H393.379V91.5938H422.383C431.191 91.5938 439.141 92.9902 446.23 95.7832C453.32 98.5046 459.408 102.622 464.492 108.137C469.577 113.579 473.444 120.347 476.094 128.439C478.815 136.532 480.176 145.913 480.176 156.584V183.117C480.176 193.788 478.815 203.169 476.094 211.262C473.444 219.354 469.541 226.122 464.385 231.564C459.229 237.007 452.962 241.125 445.586 243.918C438.281 246.639 429.938 248 420.557 248ZM404.873 91.5938V248H385.107V91.5938H404.873Z" fill="black"/>
<path fill-rule="evenodd" clip-rule="evenodd" d="M207.742 25.8023L191.009 86.9947L190.746 88.0804C158.536 93.1907 137.657 101.39 137.657 110.637C137.657 126.136 196.449 138.715 268.973 138.715C341.496 138.715 400.288 126.136 400.288 110.637C400.288 101.39 379.409 93.1907 347.199 88.0804L346.937 86.9947L330.203 25.7836C327.464 15.8064 317.109 9.89117 306.96 12.0439C295.442 14.4773 280.604 17.0418 268.973 17.0418C257.342 17.0418 242.503 14.496 230.985 12.0439C220.836 9.89117 210.481 15.7877 207.742 25.8023ZM208.023 98.1886C208.084 97.5763 208.266 96.982 208.557 96.4397C208.849 95.8974 209.245 95.4178 209.722 95.0283C210.199 94.6389 210.749 94.3472 211.34 94.17C211.93 93.9927 212.55 93.9335 213.164 93.9956C230.047 95.7177 248.994 96.6724 268.973 96.6724C287.609 96.7027 306.235 95.8093 324.782 93.9956C326.021 93.8715 327.258 94.2435 328.222 95.0298C329.186 95.8162 329.798 96.9525 329.922 98.1886C330.046 99.4248 329.673 100.66 328.885 101.622C328.097 102.583 326.959 103.194 325.72 103.318C308.499 105.059 289.252 106.032 268.973 106.032C248.694 106.032 229.447 105.059 212.226 103.318C211.612 103.257 211.016 103.076 210.473 102.785C209.929 102.494 209.449 102.099 209.058 101.623C208.668 101.146 208.376 100.598 208.198 100.009C208.021 99.4193 207.961 98.8008 208.023 98.1886ZM184.555 176.153H222.074C224.562 176.153 226.948 177.139 228.707 178.895C230.466 180.65 231.454 183.03 231.454 185.513V204.232C231.454 211.679 228.489 218.82 223.212 224.086C217.935 229.352 210.778 232.31 203.315 232.31C195.852 232.31 188.695 229.352 183.418 224.086C178.14 218.82 175.176 211.679 175.176 204.232V185.513C175.176 183.03 176.164 180.65 177.923 178.895C179.682 177.139 182.068 176.153 184.555 176.153ZM156.416 185.513C156.429 182.218 156.96 179.098 158.011 176.153H156.416C153.929 176.153 151.543 175.167 149.784 173.412C148.025 171.657 147.037 169.276 147.037 166.794C147.037 164.311 148.025 161.931 149.784 160.176C151.543 158.42 153.929 157.434 156.416 157.434H222.074C228.926 157.435 235.542 159.93 240.681 164.452C245.82 168.973 249.129 175.211 249.988 181.994C262.368 178.262 275.577 178.262 287.957 181.994C288.816 175.211 292.125 168.973 297.264 164.452C302.404 159.93 309.02 157.435 315.871 157.434H381.529C384.017 157.434 386.402 158.42 388.161 160.176C389.92 161.931 390.909 164.311 390.909 166.794C390.909 169.276 389.92 171.657 388.161 173.412C386.402 175.167 384.017 176.153 381.529 176.153H379.934C380.985 179.098 381.516 182.218 381.529 185.513V204.232C381.529 216.643 376.588 228.546 367.793 237.323C358.998 246.099 347.069 251.029 334.631 251.029C322.192 251.029 310.263 246.099 301.468 237.323C292.673 228.546 287.732 216.643 287.732 204.232V201.611L283.793 200.301C274.172 197.103 263.773 197.103 254.153 200.301L250.213 201.611V204.232C250.213 216.643 245.272 228.546 236.477 237.323C227.682 246.099 215.753 251.029 203.315 251.029C190.877 251.029 178.948 246.099 170.153 237.323C161.357 228.546 156.416 216.643 156.416 204.232V185.513ZM315.871 176.153H353.39C355.878 176.153 358.263 177.139 360.022 178.895C361.781 180.65 362.77 183.03 362.77 185.513V204.232C362.77 211.679 359.805 218.82 354.528 224.086C349.251 229.352 342.093 232.31 334.631 232.31C327.168 232.31 320.01 229.352 314.733 224.086C309.456 218.82 306.491 211.679 306.491 204.232V185.513C306.491 183.03 307.48 180.65 309.239 178.895C310.998 177.139 313.384 176.153 315.871 176.153Z" fill="#007BFF"/>
</svg>
